{
    "asset" : {
        "generator" : "Khronos glTF Blender I/O v3.4.50",
        "version" : "2.0"
    },
    "extensionsUsed" : [
        "KHR_materials_transmission",
        "KHR_materials_specular"
    ],
    "scene" : 0,
    "scenes" : [
        {
            "name" : "Scene",
            "nodes" : [
                0
            ]
        }
    ],
    "nodes" : [
        {
            "mesh" : 0,
            "name" : "SciFi_Fighter_AK5",
            "rotation" : [
                0.70710688829422,
                0,
                0,
                0.7071066498756409
            ]
        }
    ],
    "materials" : [
        {
            "doubleSided" : true,
            "emissiveFactor" : [
                1,
                1,
                1
            ],
            "emissiveTexture" : {
                "index" : 0
            },
            "extensions" : {
                "KHR_materials_transmission" : {
                    "transmissionFactor" : 1
                },
                "KHR_materials_specular" : {
                    "specularColorFactor" : [
                        1,
                        1,
                        1
                    ]
                }
            },
            "name" : "SciFi_Fighter_AK5",
            "normalTexture" : {
                "index" : 1,
                "scale" : 0
            },
            "pbrMetallicRoughness" : {
                "baseColorTexture" : {
                    "index" : 2
                },
                "metallicFactor" : 0,
                "roughnessFactor" : 0.7591681480407715
            }
        }
    ],
    "meshes" : [
        {
            "name" : "SciFi_Fighter_AK5",
            "primitives" : [
                {
                    "attributes" : {
                        "POSITION" : 0,
                        "TEXCOORD_0" : 1,
                        "NORMAL" : 2
                    },
                    "indices" : 3,
                    "material" : 0
                }
            ]
        }
    ],
    "textures" : [
        {
            "sampler" : 0,
            "source" : 0
        },
        {
            "sampler" : 0,
            "source" : 1
        },
        {
            "sampler" : 0,
            "source" : 2
        }
    ],
    "images" : [
        {
            "mimeType" : "image/jpeg",
            "name" : "SciFi_Fighter_AK5-Lights",
            "uri" : "SciFi_Fighter_AK5-Lights.jpg"
        },
        {
            "mimeType" : "image/jpeg",
            "name" : "SciFi_Fighter_AK5-Normal_Map",
            "uri" : "SciFi_Fighter_AK5-Normal_Map.jpg"
        },
        {
            "mimeType" : "image/jpeg",
            "name" : "SciFi_Fighter_AK5-diffuse",
            "uri" : "SciFi_Fighter_AK5-diffuse.jpg"
        }
    ],
    "accessors" : [
        {
            "bufferView" : 0,
            "componentType" : 5126,
            "count" : 4480,
            "max" : [
                771.7600708007812,
                991.1600341796875,
                373.8562316894531
            ],
            "min" : [
                -771.7600708007812,
                -991.1600341796875,
                -373.8563537597656
            ],
            "type" : "VEC3"
        },
        {
            "bufferView" : 1,
            "componentType" : 5126,
            "count" : 4480,
            "type" : "VEC2"
        },
        {
            "bufferView" : 2,
            "componentType" : 5126,
            "count" : 4480,
            "type" : "VEC3"
        },
        {
            "bufferView" : 3,
            "componentType" : 5123,
            "count" : 7710,
            "type" : "SCALAR"
        }
    ],
    "bufferViews" : [
        {
            "buffer" : 0,
            "byteLength" : 53760,
            "byteOffset" : 0,
            "target" : 34962
        },
        {
            "buffer" : 0,
            "byteLength" : 35840,
            "byteOffset" : 53760,
            "target" : 34962
        },
        {
            "buffer" : 0,
            "byteLength" : 53760,
            "byteOffset" : 89600,
            "target" : 34962
        },
        {
            "buffer" : 0,
            "byteLength" : 15420,
            "byteOffset" : 143360,
            "target" : 34963
        }
    ],
    "samplers" : [
        {
            "magFilter" : 9729,
            "minFilter" : 9987
        }
    ],
    "buffers" : [
        {
            "byteLength" : 158780,
            "uri" : "SciFi_Fighter.bin"
        }
    ]
}
